<?xml version="1.0" encoding="UTF-8"?>
<svg version="1.1" xmlns="http://www.w3.org/2000/svg" width="2049" height="1676">
<path d="M0 0 C0.97701874 -0.00701431 1.95403748 -0.01402863 2.96066284 -0.02125549 C6.0988227 -0.0386643 9.23679361 -0.04510857 12.375 -0.046875 C13.44913147 -0.04754974 14.52326294 -0.04822449 15.62994385 -0.04891968 C32.0775101 -0.03250984 48.11735935 0.50105353 64.375 3.203125 C65.42059082 3.36941406 66.46618164 3.53570312 67.54345703 3.70703125 C143.81586511 16.11465299 214.38578045 56.30103073 265.375 114.203125 C265.82117676 114.70457031 266.26735352 115.20601563 266.72705078 115.72265625 C315.80349442 171.114807 344.28238458 242.09795318 352.375 315.203125 C352.50676384 316.3674279 352.50676384 316.3674279 352.64118958 317.55525208 C353.42908153 325.18111866 353.50414829 332.74086911 353.47265625 340.40234375 C353.4712413 341.71854202 353.46982635 343.0347403 353.46836853 344.39082336 C353.46459214 347.85128764 353.45480495 351.31170841 353.44366455 354.77215576 C353.43334414 358.31880098 353.42884838 361.86545339 353.42382812 365.41210938 C353.41317712 372.34246553 353.3961611 379.27279316 353.375 386.203125 C361.90676253 365.90505751 361.90676253 365.90505751 369.1875 345.140625 C369.54803467 343.9961792 369.90856934 342.8517334 370.2800293 341.67260742 C376.47236318 321.56581627 380.5636282 301.03784241 383.375 280.203125 C383.48827637 279.37200195 383.60155273 278.54087891 383.71826172 277.68457031 C386.14530951 258.99668576 386.0168331 240.01853471 386.375 221.203125 C387.035 221.203125 387.695 221.203125 388.375 221.203125 C389.77099396 222.73149769 391.09087649 224.32962599 392.375 225.953125 C393.59123047 227.47873047 393.59123047 227.47873047 394.83203125 229.03515625 C395.25436035 229.5657666 395.67668945 230.09637695 396.11181641 230.64306641 C398.03927119 233.02351404 400.06138861 235.32198189 402.0625 237.640625 C412.80613104 250.52628839 422.08279182 264.63683923 430.375 279.203125 C430.76606934 279.87988281 431.15713867 280.55664062 431.56005859 281.25390625 C461.40720288 332.98107591 477.85325025 391.47444736 479.375 451.203125 C479.39691406 451.97237305 479.41882812 452.74162109 479.44140625 453.53417969 C481.16977311 523.73468026 464.79331685 595.08578222 432.35644531 657.31396484 C431.32583429 659.29776288 430.31514656 661.29102705 429.3046875 663.28515625 C418.29962737 684.77906362 404.53827764 704.46410991 389.375 723.203125 C388.55515625 724.23050781 387.7353125 725.25789062 386.890625 726.31640625 C380.0436165 734.70052474 372.43979418 742.34983741 364.8125 750.015625 C364.01643341 750.81959213 364.01643341 750.81959213 363.20428467 751.63980103 C356.26728488 758.62993585 349.14391225 765.1266027 341.375 771.203125 C340.69751709 771.73993896 340.02003418 772.27675293 339.32202148 772.82983398 C316.59867128 790.67384539 291.3127525 804.79453804 264.375 815.203125 C263.45058105 815.5650293 262.52616211 815.92693359 261.57373047 816.29980469 C201.57986356 839.57508363 134.33422606 845.12012367 70.83298874 852.42440701 C68.68252202 852.67179124 66.53219861 852.92039019 64.38189697 853.16920471 C61.73437826 853.47554648 59.08642661 853.77639691 56.43792725 854.07432556 C55.26892883 854.20891678 54.09993042 854.343508 52.89550781 854.48217773 C51.36111053 854.65583107 51.36111053 854.65583107 49.79571533 854.83299255 C47.37165634 855.07692718 47.37165634 855.07692718 45.375 856.203125 C45.9326001 857.30092285 45.9326001 857.30092285 46.50146484 858.42089844 C75.18716588 915.29726221 87.63377542 975.77552536 82.125 1039.390625 C81.96124878 1041.3085083 81.96124878 1041.3085083 81.79418945 1043.26513672 C79.60702746 1066.28412034 75.46061359 1089.11479618 71.55991578 1111.89081955 C70.95528385 1115.42437125 70.35370565 1118.9584432 69.75163269 1122.49243164 C68.74607327 1128.39195558 67.73816644 1134.29107459 66.72875977 1140.18994141 C65.56325142 1147.00122944 64.4016266 1153.81317158 63.24195653 1160.62545586 C62.11753778 1167.2301301 60.9904498 1173.83434612 59.8621273 1180.43835449 C59.38480132 1183.23239527 58.90840971 1186.02659295 58.43277931 1188.82092285 C57.77279173 1192.69749293 57.10889937 1196.57338851 56.44458008 1200.44921875 C56.24874329 1201.60225998 56.05290649 1202.75530121 55.85113525 1203.94328308 C55.67042984 1204.99381363 55.48972443 1206.04434418 55.30354309 1207.12670898 C55.06936534 1208.4968943 55.06936534 1208.4968943 54.83045673 1209.89476013 C54.375 1212.203125 54.375 1212.203125 53.375 1215.203125 C54.18478255 1215.44855781 54.18478255 1215.44855781 55.01092434 1215.69894886 C60.9123301 1217.56613108 66.32682984 1219.97286725 71.84204102 1222.76635742 C73.21154986 1223.45084064 73.21154986 1223.45084064 74.60872555 1224.1491518 C77.53495855 1225.61337919 80.45698842 1227.08577755 83.37890625 1228.55859375 C85.19630056 1229.469499 87.01396727 1230.37986098 88.83190918 1231.28967285 C95.53706973 1234.65008642 102.23697374 1238.02098032 108.9375 1241.390625 C131.4290625 1252.6828125 131.4290625 1252.6828125 154.375 1264.203125 C154.375 1305.783125 154.375 1347.363125 154.375 1390.203125 C122.99146138 1402.15875876 91.78636005 1411.73324937 58.875 1418.203125 C57.82554199 1418.41098633 56.77608398 1418.61884766 55.69482422 1418.83300781 C50.15410308 1419.87115441 45.01122036 1420.41783816 39.375 1420.203125 C30.96429442 1404.36478333 25.04942431 1388.43124798 20.5 1371.078125 C20.0522522 1369.37112427 20.0522522 1369.37112427 19.59545898 1367.62963867 C18.03767508 1361.47523448 16.89679502 1355.53156204 16.375 1349.203125 C15.77888916 1349.11861084 15.18277832 1349.03409668 14.56860352 1348.94702148 C-36.08686101 1341.58377595 -83.93823118 1321.3048808 -121.625 1286.203125 C-122.99575183 1285.01072378 -124.37057863 1283.82298617 -125.75 1282.640625 C-132.58773748 1276.66964298 -138.80372007 1270.16163757 -144.625 1263.203125 C-145.2430249 1262.47174316 -145.2430249 1262.47174316 -145.87353516 1261.72558594 C-189.95747732 1209.26648339 -212.45677357 1142.93501212 -223.625 1076.203125 C-225.65244016 1090.26174553 -225.96598082 1104.18531529 -225.94067383 1118.37597656 C-225.9375349 1122.03741874 -225.96098416 1125.69803319 -225.98632812 1129.359375 C-226.04572296 1151.17732203 -224.43637299 1172.94274798 -219.9375 1194.328125 C-219.68258789 1195.56199951 -219.42767578 1196.79587402 -219.16503906 1198.06713867 C-209.48564564 1243.20583922 -189.55143711 1286.12533986 -159.91845703 1321.64941406 C-158.61550079 1323.21453552 -157.33705647 1324.79765396 -156.05859375 1326.3828125 C-149.66732345 1334.18046347 -142.66619544 1341.37074828 -135.5625 1348.515625 C-134.65266357 1349.43472656 -133.74282715 1350.35382813 -132.80541992 1351.30078125 C-126.71752932 1357.3607583 -120.33435625 1362.84692766 -113.625 1368.203125 C-112.59762523 1369.0667218 -111.57423433 1369.93513316 -110.55859375 1370.8125 C-96.86696346 1382.55430501 -81.90793868 1392.66252578 -66.625 1402.203125 C-66.0165625 1402.58388184 -65.408125 1402.96463867 -64.78125 1403.35693359 C-55.7343952 1408.9839384 -46.42872743 1414.10444704 -37.03637695 1419.13061523 C-35.68225708 1419.85873413 -35.68225708 1419.85873413 -34.30078125 1420.6015625 C-33.49552002 1421.03130371 -32.69025879 1421.46104492 -31.8605957 1421.90380859 C-29.64169592 1423.19342142 -27.64392187 1424.62204509 -25.625 1426.203125 C-86.54525572 1427.02814409 -144.69361453 1419.62385548 -202.625 1400.203125 C-203.79224609 1399.81398926 -204.95949219 1399.42485352 -206.16210938 1399.02392578 C-222.77287119 1393.43279649 -238.81104402 1386.89766563 -254.71777344 1379.54589844 C-257.24583586 1378.3782512 -259.78069816 1377.22815106 -262.3203125 1376.0859375 C-289.55182276 1363.72235121 -315.60385916 1347.98151722 -339.625 1330.203125 C-340.31803223 1329.69265625 -341.01106445 1329.1821875 -341.72509766 1328.65625 C-357.09684049 1317.31085771 -371.95881841 1305.37851394 -386.0847168 1292.5078125 C-387.6845375 1291.05636537 -389.29099442 1289.61216719 -390.90673828 1288.1784668 C-397.25634238 1282.53767105 -403.32082688 1276.6584436 -409.3125 1270.640625 C-410.21033203 1269.74666016 -411.10816406 1268.85269531 -412.03320312 1267.93164062 C-417.10762213 1262.84978657 -421.9596675 1257.66058831 -426.625 1252.203125 C-427.6463583 1251.04633797 -428.66975922 1249.89135084 -429.6953125 1248.73828125 C-437.17531273 1240.26248401 -444.18256697 1231.51298402 -450.94384766 1222.45507812 C-452.08595583 1220.92519055 -453.23159373 1219.39793299 -454.38037109 1217.87304688 C-462.6158747 1206.94036522 -470.41688233 1195.84026489 -477.625 1184.203125 C-478.09615234 1183.44483398 -478.56730469 1182.68654297 -479.05273438 1181.90527344 C-528.67858863 1101.6359511 -554.97855633 1011.41997897 -557.625 917.203125 C-557.64836426 916.42211426 -557.67172852 915.64110352 -557.69580078 914.83642578 C-560.02069178 824.63456244 -535.90368732 732.80642316 -460.625 605.203125 C-460.14111816 604.54199707 -459.65723633 603.88086914 -459.15869141 603.19970703 C-451.63817891 592.935458 -443.76203174 582.98460924 -435.625 573.203125 C-435.13032227 572.60790039 -434.63564453 572.01267578 -434.12597656 571.39941406 C-419.87605269 554.33186998 -404.57621086 537.21053029 -387.5546875 522.85546875 C-385.13965807 520.78753869 -382.82934275 518.61705066 -380.5 516.453125 C-375.29700285 511.70879427 -369.85820166 507.35879775 -364.2890625 503.0546875 C-361.81871753 501.14416416 -359.37943952 499.20229459 -356.9609375 497.2265625 C-348.16182043 490.04377591 -339.09009913 483.47875977 -329.625 477.203125 C-328.46242676 476.42751221 -328.46242676 476.42751221 -327.27636719 475.63623047 C-308.06499992 462.84787135 -288.20988279 451.62516868 -267.625 441.203125 C-266.66416504 440.71199219 -265.70333008 440.22085937 -264.71337891 439.71484375 C-207.42026645 410.59284593 -144.36235271 395.11475144 -80.625 389.203125 C-79.49908447 389.09782471 -78.37316895 388.99252441 -77.21313477 388.8840332 C-65.63371612 387.95837087 -54.03254101 388.01703545 -42.4230957 388.01782227 C-38.85811098 388.01565276 -35.29344522 387.99748719 -31.72851562 387.97851562 C4.93465912 387.88958495 4.93465912 387.88958495 20.375 391.203125 C19.82095424 398.66323406 18.06361128 405.33395911 15.8125 412.453125 C15.45317383 413.59773193 15.09384766 414.74233887 14.72363281 415.92163086 C9.80277987 431.37719189 4.01454126 446.23610601 -2.8125 460.953125 C-3.31168945 462.05599854 -3.81087891 463.15887207 -4.32519531 464.29516602 C-4.80956055 465.31151123 -5.29392578 466.32785645 -5.79296875 467.375 C-6.21860107 468.2834668 -6.6442334 469.19193359 -7.08276367 470.12792969 C-8.625 472.203125 -8.625 472.203125 -10.92979431 472.82870483 C-13.43840759 473.17720343 -15.76136832 473.30541387 -18.29052734 473.26904297 C-19.19227692 473.25943039 -20.09402649 473.24981781 -21.02310181 473.23991394 C-21.99258759 473.22519547 -22.96207336 473.21047699 -23.9609375 473.1953125 C-26.06346689 473.17499816 -28.16600682 473.15575334 -30.26855469 473.13745117 C-31.36760132 473.12700775 -32.46664795 473.11656433 -33.59899902 473.10580444 C-54.14952517 472.93855159 -74.24755942 473.29968369 -94.625 476.203125 C-95.87039551 476.38004883 -97.11579102 476.55697266 -98.39892578 476.73925781 C-168.07951272 486.95966562 -235.89587505 513.06922599 -292.625 555.203125 C-293.33881836 555.73292969 -294.05263672 556.26273438 -294.78808594 556.80859375 C-307.97253948 566.64582005 -320.47996179 577.10765799 -332.625 588.203125 C-333.61438778 589.09917431 -334.60398013 589.99499777 -335.59375 590.890625 C-343.73212072 598.27520425 -351.67146651 605.77399989 -358.828125 614.12890625 C-360.7996243 616.40470218 -362.83634395 618.61235167 -364.875 620.828125 C-369.97810006 626.4857215 -374.63908627 632.44892671 -379.28710938 638.47998047 C-380.50387099 640.04711613 -381.74294956 641.59686013 -382.984375 643.14453125 C-391.8207681 654.2789796 -401.26139907 666.47592314 -407.625 679.203125 C-401.36855224 680.61703255 -395.06288583 680.58074972 -388.67578125 680.75390625 C-387.93852625 680.77472071 -387.20127125 680.79553516 -386.44167519 680.81698036 C-361.64369504 681.49419332 -336.83049397 681.39053374 -312.02526963 681.38823617 C-307.19935817 681.38854045 -302.37350244 681.39673718 -297.54760742 681.40893555 C-199.15323377 681.65197422 -122.13886204 671.75103207 -33.1900177 591.94831848 C-32.16276579 590.92465933 -31.13645997 589.90004993 -30.11108398 588.87451172 C-28.56576934 587.3313897 -27.01259554 585.79648194 -25.45898438 584.26171875 C-19.06222429 577.90045742 -13.2400087 571.27641645 -7.625 564.203125 C-6.76175263 563.17545661 -5.89336312 562.15203848 -5.015625 561.13671875 C10.99258746 542.47020824 24.4321683 521.64975939 36.375 500.203125 C36.82488281 499.40197266 37.27476562 498.60082031 37.73828125 497.77539062 C57.76465375 461.84911719 70.22079335 422.3883858 77.125 381.953125 C77.42325684 380.21603271 77.42325684 380.21603271 77.72753906 378.44384766 C80.82370558 359.37560429 81.75300708 340.4402685 81.6875 321.140625 C81.68567719 320.02171875 81.68385437 318.9028125 81.68197632 317.75 C81.63536818 300.72694752 81.1170933 284.03756237 78.375 267.203125 C78.19807617 266.09259766 78.02115234 264.98207031 77.83886719 263.83789062 C64.25219952 180.62835084 22.71325679 94.35155143 -44.94921875 41.32421875 C-47.38384137 39.39429162 -49.71859419 37.37995224 -52.05126953 35.32910156 C-58.81295936 29.41708111 -66.01827561 24.36388469 -73.52929688 19.44238281 C-74.32013672 18.91870117 -75.11097656 18.39501953 -75.92578125 17.85546875 C-76.63903564 17.39132568 -77.35229004 16.92718262 -78.0871582 16.44897461 C-78.594646 16.03784424 -79.10213379 15.62671387 -79.625 15.203125 C-79.625 14.543125 -79.625 13.883125 -79.625 13.203125 C-54.60021373 4.45422511 -26.48823064 0.12830967 0 0 Z M351.375 388.203125 C352.375 390.203125 352.375 390.203125 352.375 390.203125 Z " fill="#FEFEFE" transform="translate(607.625,132.796875)"/>
<path d="M0 0 C1.46862612 -0.00445668 1.46862612 -0.00445668 2.96692145 -0.0090034 C6.24013288 -0.01765808 9.51330759 -0.01919602 12.78652954 -0.02069092 C15.13793007 -0.02532199 17.48932985 -0.03034704 19.84072876 -0.03573608 C26.8977373 -0.05021736 33.954738 -0.05624744 41.01175874 -0.0611316 C44.35073167 -0.06371694 47.68970329 -0.06750684 51.02867508 -0.07125092 C62.16016933 -0.08345041 73.29166168 -0.09374164 84.42316246 -0.09712601 C85.13521221 -0.09734557 85.84726195 -0.09756514 86.58088896 -0.09779136 C87.29450942 -0.09800964 88.00812987 -0.09822791 88.74337518 -0.09845281 C90.18907507 -0.09889625 91.63477496 -0.09934281 93.08047485 -0.09979248 C93.7975701 -0.10001391 94.51466535 -0.10023534 95.25349076 -0.10046348 C106.80586394 -0.10438956 118.35817318 -0.12177287 129.91052179 -0.145152 C141.82462596 -0.16906404 153.73869841 -0.18133712 165.65282691 -0.18249393 C172.3199758 -0.18340078 178.987024 -0.18922848 185.65415573 -0.20731354 C288.66141047 -0.47049861 390.84126377 20.11771804 521.99209595 123.89044189 C526.22044636 128.1675341 530.2337148 132.55099145 534.11709595 137.14044189 C534.90213501 138.03634033 535.68717407 138.93223877 536.4960022 139.85528564 C599.95712729 212.73642149 627.72125252 308.60361681 627.42959595 403.95294189 C627.42686172 405.81872391 627.42686172 405.81872391 627.42407227 407.72219849 C627.37422235 428.00786573 626.70247486 448.01484349 624.11709595 468.14044189 C624.03223938 468.80445007 623.94738281 469.46845825 623.85995483 470.15258789 C613.80726751 548.01831853 584.58905353 623.90298453 532.11709595 683.14044189 C531.32947876 684.03891846 530.54186157 684.93739502 529.7303772 685.86309814 C523.57823655 692.72993017 517.10712431 699.28199453 510.61709595 705.82794189 C509.31796265 707.14665283 509.31796265 707.14665283 507.99258423 708.49200439 C502.01420834 714.47825693 495.72015637 719.85946179 489.11709595 725.14044189 C487.30201565 726.69994374 485.48893269 728.26178001 483.67959595 729.82794189 C404.11868878 796.06034657 297.29158849 821.24913593 195.8710022 821.30157471 C193.73451658 821.30621921 191.59803176 821.31124597 189.46154785 821.31661987 C183.72602741 821.32957968 177.99051856 821.33615492 172.25498581 821.34063053 C168.65743612 821.34358509 165.05988945 821.34769382 161.46234131 821.3521347 C150.16375083 821.36575967 138.86516744 821.37545344 127.56656933 821.3793366 C114.600208 821.38382019 101.63395192 821.40140335 88.66762257 821.43033719 C78.58712206 821.45203883 68.50665102 821.46204521 58.42612743 821.46337771 C52.43026333 821.46441868 46.43449883 821.47017524 40.43865967 821.48819733 C34.79789204 821.5048283 29.15729743 821.50676161 23.51651382 821.49805832 C21.46446388 821.49729621 19.412404 821.50151933 17.36037827 821.51151657 C-16.88342545 821.66837587 -47.36142255 814.64972199 -72.66415405 790.48419189 C-98.19736287 763.69008388 -102.20684205 730.15438437 -102.13687134 694.6729126 C-102.13917894 692.11297931 -102.14235746 689.55304668 -102.14632583 686.99311543 C-102.15350676 681.45205907 -102.15335641 675.91104177 -102.14823151 670.36998367 C-102.14063119 662.12989916 -102.14455228 653.88984729 -102.15064812 645.64976296 C-102.16115407 630.92850943 -102.16027702 616.20727332 -102.1544903 601.48601815 C-102.14945123 588.60289004 -102.14814949 575.7197683 -102.15053558 562.8366394 C-102.15068835 561.9807401 -102.15084112 561.12484079 -102.15099852 560.24300513 C-102.15162124 556.76828124 -102.15225805 553.29355735 -102.15291805 549.81883346 C-102.15903055 517.24990059 -102.15349786 484.68097879 -102.14272426 452.11204763 C-102.13323366 423.2019101 -102.13408294 394.2917902 -102.14364624 365.38165283 C-102.1543648 332.87076008 -102.15859698 300.35987709 -102.15242171 267.84898281 C-102.15178032 264.38073667 -102.15115463 260.91249053 -102.15053558 257.44424438 C-102.15037743 256.59032778 -102.15021927 255.73641118 -102.15005633 254.85661832 C-102.14778522 241.98431472 -102.15043477 229.1120182 -102.15549469 216.23971558 C-102.1612218 201.59745966 -102.15976523 186.95522382 -102.1489332 172.3129704 C-102.14307646 164.12694365 -102.14265433 155.94096041 -102.15022555 147.75493482 C-102.15526239 141.63172931 -102.14976848 135.50857466 -102.1402764 129.38537538 C-102.13805093 126.91655367 -102.13915938 124.4477261 -102.14402798 121.97890818 C-102.20352838 89.28714991 -102.20352838 89.28714991 -97.75790405 74.07794189 C-97.44031128 72.97253052 -97.44031128 72.97253052 -97.11630249 71.8447876 C-89.51182017 46.84678999 -71.94807759 24.56625828 -48.88290405 12.14044189 C-33.53013553 4.48753281 -17.18451165 -0.01642605 0 0 Z M91.11709595 162.14044189 C91.11709595 325.82044189 91.11709595 489.50044189 91.11709595 658.14044189 C173.84580311 660.8500909 173.84580311 660.8500909 259.61709595 654.39044189 C260.63497192 654.22197754 261.6528479 654.05351318 262.7015686 653.87994385 C299.08654665 647.5955712 334.06096975 634.7394151 362.11709595 610.14044189 C362.94338501 609.43532471 363.76967407 608.73020752 364.6210022 608.00372314 C408.18138603 570.03324772 425.64333805 510.89235662 431.11709595 455.14044189 C431.22005981 454.10709717 431.32302368 453.07375244 431.42910767 452.00909424 C438.54960495 376.8332912 432.83096058 290.60466219 383.00650024 230.04498291 C348.22590688 188.6272916 297.65787399 170.28556213 245.11709595 164.14044189 C193.90108719 160.60830336 142.4547581 162.14044189 91.11709595 162.14044189 Z " fill="#FEFEFE" transform="translate(1351.8829040527344,635.8595581054688)"/>
<path d="M0 0 C0.66 0 1.32 0 2 0 C15.95891161 40.15130564 25.41018919 80.67620705 30 123 C30.11859375 124.04816895 30.2371875 125.09633789 30.359375 126.17626953 C39.7374181 212.35099592 24.27982698 302.28609574 -77 494 C-77.49322754 494.61794434 -77.98645508 495.23588867 -78.49462891 495.87255859 C-98.36641322 520.69547958 -98.36641322 520.69547958 -107.44921875 529.453125 C-109.10662079 531.10635222 -110.6098585 532.84074578 -112.125 534.625 C-119.09333427 542.69442547 -126.79448511 550.3050882 -134.921875 557.203125 C-137.0805612 559.06965818 -139.17496816 560.99831868 -141.26586914 562.94018555 C-147.31340351 568.55050275 -153.52846493 573.88049925 -160 579 C-160.64710938 579.51433594 -161.29421875 580.02867187 -161.9609375 580.55859375 C-226.82700635 632 -226.82700635 632 -240 632 C-240.41865146 619.33508132 -240.7376597 606.67182898 -240.93261909 594.00137901 C-241.02623957 588.11625768 -241.15297917 582.23589646 -241.35791016 576.35351562 C-241.55477024 570.66664296 -241.66135815 564.98431869 -241.70779037 559.29430008 C-241.74083333 557.13367707 -241.80537448 554.97328001 -241.90314102 552.81461716 C-242.61561657 536.41806105 -242.61561657 536.41806105 -238.29238129 530.76850128 C-234.10216274 526.66064508 -229.39543628 523.53087531 -224.38895798 520.50859451 C-218.08208961 516.52589281 -212.37571092 511.56026397 -206.6875 506.75 C-205.70136719 505.91984375 -204.71523438 505.0896875 -203.69921875 504.234375 C-194.57836542 496.34807211 -185.85818264 488.04485585 -177.33520508 479.52050781 C-175.80762584 477.99513287 -174.27216418 476.47799328 -172.73632812 474.9609375 C-166.37159671 468.63183124 -160.59940049 462.02655867 -155 455 C-154.06519387 453.89819441 -153.12384884 452.8018506 -152.171875 451.71484375 C-144.49512213 442.91134166 -137.67440308 433.57922997 -131 424 C-130.49855469 423.28215332 -129.99710938 422.56430664 -129.48046875 421.82470703 C-120.5744086 408.99140334 -112.66746403 395.60265784 -105 382 C-104.54383301 381.1951416 -104.08766602 380.3902832 -103.61767578 379.56103516 C-69.22925978 318.35996724 -52.79105401 246.44186312 -52.75 176.625 C-52.74932526 175.58843262 -52.74865051 174.55186523 -52.74795532 173.48388672 C-52.7806345 141.70629222 -55.67633601 109.72554173 -63.43164062 78.82885742 C-63.98364682 76.08139358 -64.27510804 73.78821699 -64 71 C-62.24878531 69.01408643 -60.63128189 67.43437959 -58.625 65.75 C-57.81059448 65.03493286 -57.81059448 65.03493286 -56.97973633 64.30541992 C-55.32974531 62.85839346 -53.665734 61.42884745 -52 60 C-46.66250602 55.32312412 -41.5356409 50.70724013 -36.9609375 45.2734375 C-34.96673715 42.9614363 -32.89063909 40.73933598 -30.79589844 38.51855469 C-24.56786489 31.89708883 -18.86679249 24.98865869 -13.35107422 17.76708984 C-11.96146923 15.94960503 -10.56202414 14.14007026 -9.16015625 12.33203125 C-4.43360574 6.27273523 -4.43360574 6.27273523 0 0 Z " fill="#FEFEFE" transform="translate(1057,865)"/>
</svg>
